PathFileType	3	(X/Y/Z)	D:\ViconData\Biomechanics course\HT2024\Leo31oct\Walk_Norm15.trc
DataRate	CameraRate	NumFrames	NumMarkers	Units	OrigDataRate	OrigDataStartFrame	OrigNumFrames
100.0	100.0	6	53	mm	100.0	186	210	
Frame#	Time	LFHD			RFHD			LBHD			RBHD			C7			T10			CLAV			STRN			RBAK			LSHO			LUPA			LELB			LFRM			LWRA			LWRB			LFIN			RSHO			RUPA			RELB			RFRM			RWRA			RWRB			RFIN			LASI			RASI			LPSI			RPSI			LTHI			LTHAP			LTHAD			LKNE			LKNM			LTIB			LTIAP			LTIAD			LANK			LMED			LHEE			LTOE			RTHI			RTHAP			RTHAD			RKNE			RKNM			RTIB			RTIAP			RTIAD			RANK			RMED			RHEE			RTOE			LPel			RPel			
		X1	Y1	Z1	X2	Y2	Z2	X3	Y3	Z3	X4	Y4	Z4	X5	Y5	Z5	X6	Y6	Z6	X7	Y7	Z7	X8	Y8	Z8	X9	Y9	Z9	X10	Y10	Z10	X11	Y11	Z11	X12	Y12	Z12	X13	Y13	Z13	X14	Y14	Z14	X15	Y15	Z15	X16	Y16	Z16	X17	Y17	Z17	X18	Y18	Z18	X19	Y19	Z19	X20	Y20	Z20	X21	Y21	Z21	X22	Y22	Z22	X23	Y23	Z23	X24	Y24	Z24	X25	Y25	Z25	X26	Y26	Z26	X27	Y27	Z27	X28	Y28	Z28	X29	Y29	Z29	X30	Y30	Z30	X31	Y31	Z31	X32	Y32	Z32	X33	Y33	Z33	X34	Y34	Z34	X35	Y35	Z35	X36	Y36	Z36	X37	Y37	Z37	X38	Y38	Z38	X39	Y39	Z39	X40	Y40	Z40	X41	Y41	Z41	X42	Y42	Z42	X43	Y43	Z43	X44	Y44	Z44	X45	Y45	Z45	X46	Y46	Z46	X47	Y47	Z47	X48	Y48	Z48	X49	Y49	Z49	X50	Y50	Z50	X51	Y51	Z51	X52	Y52	Z52	X53	Y53	Z53	
186	1.85	151.28377	1660.1901	-65.723946	267.87772	1666.0406	-62.64706				272.25226	1674.0509	-208.1496	212.36969	1527.3231	-3.0059419	224.9922	1293.7096	75.068535	216.82111	1446.6488	-125.51965	222.57133	1254.1515	-163.98988	302.21442	1420.7688	60.700272	49.439941	1476.2395	-74.143318	-47.39048	1216.5989	27.792274	-57.383148	1144.4779	59.952385	-70.576088	1022.7424	82.275154	-27.235382	865.5448	67.962265	-57.012573	878.82471	128.66324	-55.496403	775.80469	95.641464	373.98285	1480.2023	-64.719841	480.69531	1219.7487	-29.246431	501.24686	1137.7123	-18.611849	516.01031	1017.3285	-93.197136	489.89716	871.07489	-119.41516	473.418	885.30151	-186.85526	513.78821	810.67847	-212.17444	121.20994	1016.3594	-130.61096	361.50018	1010.6783	-108.72638	172.13063	1040.9841	65.438782	256.52469	1041.7314	72.252014	87.454506	642.32202	-162.2543	153.11458	726.60864	-235.15172	163.60045	616.5943	-257.07568	102.03425	508.32599	-197.81352				121.56266	238.10799	-208.06819	148.66231	413.06055	-256.32571	165.31908	191.1723	-253.91998	153.80386	78.375557	-222.20227				195.44589	50.386257	-157.86739	179.03943	50.013325	-315.71078	373.74152	581.98834	12.190063	304.23068	665.22516	-100.00179	301.34439	578.22717	-78.721649	359.48392	483.02725	41.484985				348.34732	289.71494	247.52605	321.00208	388.98523	47.855587	309.37503	253.26622	207.64259	323.91	189.15323	342.70883				277.65936	202.58011	401.83926	291.11255	78.242981	306.5802	69.742332	1042.7358	-51.804844	369.6138	1042.5852	26.076435
187	1.86	149.69582	1661.1866	-79.49176	266.27533	1667.3324	-76.332077				270.72906	1675.3011	-221.86172	210.85748	1528.3717	-16.638634	223.77837	1294.7269	60.921196	215.81363	1447.8013	-139.1936	221.92732	1255.3998	-177.85408	300.83322	1421.995	47.217499	48.304657	1476.9742	-88.360428	-48.327728	1215.9355	10.62506	-58.328907	1143.4943	42.050282	-71.111069	1021.5068	63.052162	-26.806494	864.65039	47.581142	-57.43771	877.22455	108.01609	-54.618977	774.45807	74.358116	372.73315	1481.6873	-78.044731	479.06912	1221.1859	-41.925083	499.40277	1139.1849	-30.924837	514.41925	1017.5659	-103.56918	488.68619	870.79047	-127.22437	472.08124	883.67004	-194.81396	512.52576	808.50812	-218.52443	120.16537	1017.934	-144.10255	360.41132	1011.0367	-122.52661	171.83492	1042.5367	51.925144	256.26093	1042.7075	58.630596	86.640556	643.02753	-172.54355	151.87505	726.69122	-246.32278	162.69948	616.49133	-267.32602	101.58662	508.80432	-206.9953				121.05138	238.35104	-212.0266	148.48924	412.36423	-263.74728	165.23764	190.58537	-256.70996	153.77827	78.428917	-222.80486				195.18137	50.701069	-157.96532	179.12932	49.761772	-315.9617	373.37994	580.55225	-10.41507	304.40683	665.93909	-120.65114	301.94061	578.34906	-101.9001	359.048	482.66669	17.327351				348.21774	296.4649	227.82361	321.57474	388.77045	24.817593	310.42075	257.78421	188.62051	324.24872	198.29745	325.56436				277.35565	214.64455	383.01373	291.84082	84.068604	295.95044	69.196487	1044.7284	-65.018814	369.2659	1042.7627	12.134727
188	1.87	148.22374	1662.3542	-93.138741	264.78854	1668.7894	-89.915741				269.30255	1676.7053	-235.4725	209.43523	1529.5906	-30.151617	222.57481	1295.9296	46.912708	214.91116	1449.12	-152.73697	221.38712	1256.8119	-191.58287	299.50772	1423.3823	33.860058	47.280548	1477.9213	-102.48621	-49.219654	1215.3905	-6.7885914	-59.245087	1142.5947	23.795038	-71.58094	1020.3337	43.263599	-26.253721	863.89435	26.387096	-57.782421	875.63373	86.537056	-53.606594	773.21753	52.000328	371.5708	1483.3212	-91.225189	477.57111	1222.7892	-54.460243	497.67892	1140.8262	-43.090572	512.84583	1017.9776	-113.75642	487.46002	870.7005	-134.78537	470.62857	882.22028	-202.49025	511.00726	806.48431	-224.61203	119.11191	1019.6049	-157.46423	359.31158	1011.6738	-136.14609	171.48758	1044.2207	38.547276	255.93918	1043.8508	45.17136	85.673012	643.58289	-182.04149	150.51698	726.38184	-256.87451	161.55383	616.00745	-276.82397	100.97649	509.11044	-215.24109				120.46089	238.51974	-215.44493	148.08519	411.65439	-270.43842	164.96501	190.0506	-259.12537	153.68408	78.490318	-223.22241				194.93845	50.934891	-158.02075	179.07863	49.730377	-316.12161	373.1243	579.54114	-33.242172	305.04544	667.1037	-141.5638	303.06873	578.96454	-125.44244	358.75824	482.67822	-7.4794416				348.04361	303.10892	206.6666	322.17255	388.98395	0.83245051	311.30472	262.42239	168.19029	324.36816	207.27461	306.76016				276.83194	226.14099	362.64859	292.73413	90.44651	282.98871	68.61409	1046.7745	-78.115143	368.8479	1043.1768	-1.5970269
189	1.88	146.87506	1663.6738	-106.65752	263.42471	1670.3865	-103.38728				267.98575	1678.2399	-248.97009	208.10638	1530.9589	-43.537418	221.37848	1297.2939	33.054562	214.11391	1450.5833	-166.14308	220.94832	1258.3639	-205.17203	298.23553	1424.9048	20.634832	46.367569	1479.0619	-116.50735	-50.06242	1214.9648	-24.422373	-60.125648	1141.7848	5.2137318	-71.981255	1019.2375	22.939608	-25.582523	863.29474	4.41329	-58.03735	874.0733	64.259071	-52.476013	772.11377	28.597054	370.4989	1485.0753	-104.25304	476.20624	1224.5314	-66.831284	496.08398	1142.6097	-55.089249	511.30014	1018.5536	-123.76132	486.22726	870.80212	-142.12912	469.07343	880.96582	-209.91487	509.24622	804.62872	-230.48882	118.05689	1021.3392	-170.69693	358.20923	1012.5785	-149.58223	171.08481	1046.0093	25.304726	255.55566	1045.1423	31.874531	84.615387	644.01288	-190.81532	149.05162	725.72406	-266.88718	160.18925	615.18597	-285.62717	100.23146	509.25272	-222.61174				119.82456	238.60272	-218.37422	147.47643	410.92615	-276.44455	164.54176	189.53853	-261.20953	153.54558	78.531036	-223.4855				194.72839	51.103855	-158.04359	178.92296	49.808846	-316.2146	372.95636	579.03052	-56.133507	306.09549	668.74091	-162.60382	304.64267	580.12158	-149.1588	358.60904	483.10983	-32.778385				347.81937	309.48611	184.18149	322.78128	389.65152	-23.972147	312.00195	267.07574	146.43617	324.26984	215.85025	286.38345				276.07129	236.7274	340.89767	293.82193	97.129333	267.51898	67.994301	1048.8373	-91.101799	368.35782	1043.8215	-15.116833
190	1.89	145.65448	1665.1252	-120.04302	262.18869	1672.0966	-116.73774				266.78958	1679.8795	-262.34454	206.87253	1532.4535	-56.790703	220.18681	1298.7949	19.354855	213.41945	1452.167	-179.40778	220.60553	1260.031	-218.61967	297.01379	1426.5361	7.5460658	45.563278	1480.3748	-130.41206	-50.852173	1214.6587	-42.249718	-60.963837	1141.0686	-13.666149	-72.307243	1018.2314	2.1124814	-24.798626	862.8692	-18.302826	-58.19278	872.56586	41.219513	-51.245068	771.17889	4.1858087	369.51846	1486.9203	-117.12344	474.9747	1226.3859	-79.01915	494.62125	1144.5081	-66.902039	509.79108	1019.2811	-133.58659	484.99554	871.08893	-149.28641	467.4321	879.91528	-217.11975	507.26425	802.95905	-236.20438	117.00584	1023.1063	-183.80237	357.11057	1013.7355	-162.83794	170.627	1047.8759	12.195405	255.11113	1046.5618	18.736811	83.524216	644.34869	-198.94923	147.50871	724.78284	-276.43716	158.6505	614.08948	-293.79947	99.382721	509.24908	-229.18642				119.17358	238.60016	-220.87605	146.69725	410.17874	-281.82065	164.01375	189.03079	-263.00793	153.38495	78.537201	-223.62744				194.55789	51.228775	-158.04395	178.7002	49.916271	-316.26227	372.85974	579.07806	-78.967049	307.47287	670.86731	-183.6456	306.53955	581.85748	-172.88318	358.5885	483.99905	-58.419918				347.54437	315.45175	160.51442	323.39072	390.78769	-49.465813	312.50986	271.633	123.45309	323.97223	223.78801	264.53607				275.07712	246.09122	317.91479	295.10675	103.81667	249.45102	67.33812	1050.8851	-103.98485	367.79782	1044.6864	-28.430239
191	1.9	144.56418	1666.686	-133.29248	261.08255	1673.8917	-129.96021				265.72241	1681.5985	-275.58795	205.73341	1534.05	-69.90834	218.99811	1300.4054	5.818377	212.82321	1453.8468	-192.52928	220.35057	1261.7877	-231.92606	295.83905	1428.2482	-5.4046688	44.863132	1481.8374	-144.19052	-51.585106	1214.4696	-60.244133	-61.75238	1140.4484	-32.816956	-72.554008	1017.3279	-19.183737	-23.907785	862.63495	-41.720131	-58.23893	871.13446	17.4597	-49.931561	770.44678	-21.18755	368.62851	1488.8263	-129.83487	473.87216	1228.325	-91.007118	493.28906	1146.4941	-78.511932	508.32562	1020.1452	-143.23543	483.7709	871.55066	-156.2874	465.72321	879.07269	-224.13736	505.09067	801.48901	-241.80504	115.96243	1024.8796	-196.78287	356.01996	1015.1243	-175.92096	170.11876	1049.7939	-0.78414422	254.61066	1048.0874	5.7518516	82.446404	644.62323	-206.53958	145.93436	723.63501	-285.59244	157.00035	612.79065	-301.40845	98.462601	509.12433	-235.05727				118.53576	238.52138	-223.01857	145.78738	409.41519	-286.62848	163.42786	188.51918	-264.56671	153.22061	78.507339	-223.68326				194.42987	51.332314	-158.03197	178.44649	50.00074	-316.28387	372.82233	579.71942	-101.6609	309.07208	673.49109	-204.58049	308.61862	584.19513	-196.48186	358.67926	485.36923	-84.265785				347.22595	320.88116	135.82114	323.99362	392.39441	-75.518768	312.8472	275.98102	99.342346	323.51044	230.86069	241.32616				273.88187	253.96791	293.84332	296.55981	110.18581	228.78479	66.648247	1052.8901	-116.76809	367.17407	1045.7577	-41.549496
